<svg width="29" height="14" viewBox="0 0 29 14" fill="none" xmlns="http://www.w3.org/2000/svg">
<path d="M2.03327 11.112C1.96793 11.2893 1.86527 11.42 1.72527 11.504C1.58527 11.5927 1.4406 11.637 1.29127 11.637H0.717266L4.88927 1.165C4.9546 1.00633 5.04793 0.885 5.16927 0.801C5.29527 0.712333 5.43993 0.668 5.60327 0.668H6.18427L2.03327 11.112ZM21.2774 0.947999L18.1414 11H16.7974L14.3474 3.545C14.2914 3.39567 14.2424 3.216 14.2004 3.006C14.149 3.22067 14.1 3.40033 14.0534 3.545L11.5754 11H10.2384L7.10236 0.947999H8.34836C8.47903 0.947999 8.58869 0.980666 8.67736 1.046C8.76603 1.10667 8.82436 1.19067 8.85236 1.298L10.8334 8.025C10.8707 8.15567 10.9034 8.298 10.9314 8.452C10.964 8.606 10.9967 8.767 11.0294 8.935C11.062 8.767 11.0947 8.606 11.1274 8.452C11.1647 8.298 11.2067 8.15567 11.2534 8.025L13.5214 1.298C13.5494 1.20467 13.6077 1.123 13.6964 1.053C13.7897 0.982999 13.8994 0.947999 14.0254 0.947999H14.4524C14.583 0.947999 14.6904 0.980666 14.7744 1.046C14.8584 1.11133 14.919 1.19533 14.9564 1.298L17.2174 8.025C17.3014 8.28167 17.376 8.57333 17.4414 8.9C17.4974 8.578 17.558 8.28633 17.6234 8.025L19.6114 1.298C19.6347 1.20467 19.693 1.123 19.7864 1.053C19.8797 0.982999 19.9894 0.947999 20.1154 0.947999H21.2774ZM23.449 9.25C23.673 9.544 23.9133 9.74933 24.17 9.866C24.4313 9.98267 24.723 10.041 25.045 10.041C25.6703 10.041 26.1533 9.817 26.494 9.369C26.8393 8.91633 27.012 8.25833 27.012 7.395C27.012 6.94233 26.9723 6.55733 26.893 6.24C26.8183 5.918 26.7063 5.65667 26.557 5.456C26.4123 5.25067 26.2327 5.10133 26.018 5.008C25.8033 4.91 25.5607 4.861 25.29 4.861C24.8933 4.861 24.548 4.94967 24.254 5.127C23.9647 5.30433 23.6963 5.55633 23.449 5.883V9.25ZM23.379 4.952C23.5283 4.77467 23.687 4.61367 23.855 4.469C24.0277 4.31967 24.212 4.19367 24.408 4.091C24.604 3.98367 24.8117 3.902 25.031 3.846C25.255 3.78533 25.493 3.755 25.745 3.755C26.151 3.755 26.5173 3.83433 26.844 3.993C27.1753 4.15167 27.4577 4.385 27.691 4.693C27.9243 5.001 28.104 5.38133 28.23 5.834C28.3607 6.28667 28.426 6.807 28.426 7.395C28.426 7.92233 28.3537 8.41233 28.209 8.865C28.069 9.313 27.866 9.70267 27.6 10.034C27.3387 10.3653 27.0167 10.6267 26.634 10.818C26.256 11.0047 25.829 11.098 25.353 11.098C24.9283 11.098 24.5643 11.028 24.261 10.888C23.9577 10.748 23.687 10.552 23.449 10.3V13.387H22.084V3.888H22.903C23.0943 3.888 23.2133 3.979 23.26 4.161L23.379 4.952Z" fill="#868FA0"/>
</svg>
