<svg width="238" height="20" viewBox="0 0 238 20" fill="none" xmlns="http://www.w3.org/2000/svg">
<rect opacity="0.15" y="5" width="200" height="10" rx="5" fill="#64BAAA"/>
<rect y="5" width="25" height="10" rx="5" fill="#64BAAA"/>
<path d="M210.738 15V6.51H208.683V5.5125C209.323 5.5125 209.825 5.4625 210.19 5.3625C210.56 5.2575 210.825 5.105 210.985 4.905C211.15 4.7 211.243 4.45 211.263 4.155H212.38V15H210.738ZM219.147 4.005C220.352 4.005 221.309 4.48 222.019 5.43C222.734 6.375 223.092 7.765 223.092 9.6C223.092 11.425 222.737 12.81 222.027 13.755C221.322 14.695 220.359 15.165 219.139 15.165C217.914 15.165 216.949 14.6975 216.244 13.7625C215.539 12.8225 215.187 11.44 215.187 9.615C215.187 8.39 215.349 7.3625 215.674 6.5325C215.999 5.6975 216.457 5.0675 217.047 4.6425C217.642 4.2175 218.342 4.005 219.147 4.005ZM219.147 13.8C219.887 13.8 220.442 13.475 220.812 12.825C221.182 12.17 221.367 11.0975 221.367 9.6075C221.367 8.0875 221.179 6.995 220.804 6.33C220.429 5.66 219.874 5.325 219.139 5.325C218.409 5.325 217.852 5.6625 217.467 6.3375C217.082 7.0075 216.889 8.0975 216.889 9.6075C216.889 11.0925 217.079 12.1625 217.459 12.8175C217.844 13.4725 218.407 13.8 219.147 13.8ZM227.488 3.99C227.983 3.99 228.426 4.12 228.816 4.38C229.211 4.64 229.521 5.005 229.746 5.475C229.971 5.94 230.083 6.48 230.083 7.095C230.083 7.71 229.971 8.2475 229.746 8.7075C229.526 9.1675 229.218 9.5275 228.823 9.7875C228.433 10.0425 227.988 10.17 227.488 10.17C226.988 10.17 226.541 10.0425 226.146 9.7875C225.751 9.5275 225.438 9.1675 225.208 8.7075C224.983 8.2475 224.871 7.71 224.871 7.095C224.871 6.48 224.986 5.94 225.216 5.475C225.446 5.005 225.758 4.64 226.153 4.38C226.548 4.12 226.993 3.99 227.488 3.99ZM227.473 9.3C227.933 9.3 228.281 9.1 228.516 8.7C228.751 8.3 228.868 7.765 228.868 7.095C228.868 6.415 228.748 5.8725 228.508 5.4675C228.268 5.0575 227.923 4.8525 227.473 4.8525C227.173 4.8525 226.921 4.9475 226.716 5.1375C226.511 5.3225 226.353 5.585 226.243 5.925C226.133 6.26 226.078 6.65 226.078 7.095C226.078 7.76 226.198 8.295 226.438 8.7C226.678 9.1 227.023 9.3 227.473 9.3ZM234.366 8.955C234.866 8.955 235.311 9.0875 235.701 9.3525C236.096 9.6175 236.406 9.9825 236.631 10.4475C236.856 10.9125 236.968 11.45 236.968 12.06C236.968 12.68 236.856 13.2225 236.631 13.6875C236.411 14.1475 236.103 14.5075 235.708 14.7675C235.318 15.0225 234.871 15.15 234.366 15.15C233.866 15.15 233.416 15.0225 233.016 14.7675C232.621 14.5075 232.311 14.1475 232.086 13.6875C231.861 13.2225 231.748 12.68 231.748 12.06C231.748 11.45 231.861 10.9125 232.086 10.4475C232.316 9.9825 232.628 9.6175 233.023 9.3525C233.423 9.0875 233.871 8.955 234.366 8.955ZM234.351 14.265C234.646 14.265 234.898 14.1725 235.108 13.9875C235.318 13.8025 235.478 13.5475 235.588 13.2225C235.698 12.8925 235.753 12.51 235.753 12.075C235.753 11.63 235.696 11.24 235.581 10.905C235.471 10.57 235.311 10.3075 235.101 10.1175C234.896 9.9275 234.646 9.8325 234.351 9.8325C234.061 9.8325 233.811 9.9275 233.601 10.1175C233.396 10.3075 233.238 10.5725 233.128 10.9125C233.018 11.2475 232.963 11.635 232.963 12.075C232.963 12.51 233.018 12.8925 233.128 13.2225C233.238 13.5475 233.396 13.8025 233.601 13.9875C233.811 14.1725 234.061 14.265 234.351 14.265ZM234.988 4.035L227.698 15.06L226.663 15.045L233.983 4.035H234.988Z" fill="#1C3954"/>
</svg>
