<svg width="32" height="33" viewBox="0 0 32 33" fill="none" xmlns="http://www.w3.org/2000/svg">
<rect y="0.5" width="32" height="32" rx="16" fill="#64BAAA"/>
<path d="M12.326 14.192C12.396 13.716 12.5267 13.2983 12.718 12.939C12.914 12.5797 13.159 12.281 13.453 12.043C13.747 11.8003 14.083 11.6183 14.461 11.497C14.8437 11.371 15.2567 11.308 15.7 11.308C16.148 11.308 16.554 11.3733 16.918 11.504C17.2867 11.63 17.6017 11.8073 17.863 12.036C18.129 12.2647 18.332 12.5377 18.472 12.855C18.6167 13.1723 18.689 13.52 18.689 13.898C18.689 14.22 18.6493 14.5047 18.57 14.752C18.4953 14.9947 18.3857 15.2093 18.241 15.396C18.101 15.5827 17.9283 15.739 17.723 15.865C17.5177 15.991 17.2867 16.096 17.03 16.18C17.6553 16.362 18.1243 16.6537 18.437 17.055C18.7497 17.4517 18.906 17.951 18.906 18.553C18.906 19.0383 18.815 19.47 18.633 19.848C18.451 20.226 18.2037 20.5457 17.891 20.807C17.583 21.0683 17.2213 21.269 16.806 21.409C16.3953 21.5443 15.959 21.612 15.497 21.612C14.979 21.612 14.531 21.5513 14.153 21.43C13.775 21.304 13.4483 21.1267 13.173 20.898C12.9023 20.6647 12.676 20.3847 12.494 20.058C12.312 19.7313 12.158 19.365 12.032 18.959L12.683 18.686C12.8557 18.6113 13.019 18.5903 13.173 18.623C13.3317 18.6557 13.446 18.742 13.516 18.882C13.5907 19.0313 13.6747 19.1923 13.768 19.365C13.8613 19.533 13.9803 19.6893 14.125 19.834C14.2743 19.974 14.4563 20.093 14.671 20.191C14.8903 20.2843 15.1587 20.331 15.476 20.331C15.798 20.331 16.078 20.2797 16.316 20.177C16.5587 20.0697 16.7593 19.9343 16.918 19.771C17.0813 19.603 17.2027 19.4163 17.282 19.211C17.3613 19.0057 17.401 18.8027 17.401 18.602C17.401 18.35 17.3707 18.119 17.31 17.909C17.2493 17.6943 17.1303 17.5123 16.953 17.363C16.7803 17.2137 16.533 17.097 16.211 17.013C15.8937 16.9243 15.476 16.88 14.958 16.88V15.795C15.3827 15.7903 15.7397 15.7483 16.029 15.669C16.323 15.585 16.5563 15.473 16.729 15.333C16.9063 15.1883 17.0323 15.0157 17.107 14.815C17.1863 14.6143 17.226 14.395 17.226 14.157C17.226 13.9003 17.1863 13.674 17.107 13.478C17.0277 13.282 16.9157 13.1187 16.771 12.988C16.631 12.8527 16.463 12.7523 16.267 12.687C16.071 12.6217 15.854 12.589 15.616 12.589C15.3873 12.589 15.175 12.6217 14.979 12.687C14.7877 12.7523 14.615 12.8433 14.461 12.96C14.3117 13.0767 14.1857 13.2167 14.083 13.38C13.9803 13.5387 13.9057 13.7137 13.859 13.905C13.7937 14.0963 13.705 14.2247 13.593 14.29C13.4857 14.3553 13.327 14.3693 13.117 14.332L12.326 14.192Z" fill="white"/>
</svg>
