<svg width="40" height="40" viewBox="0 0 40 40" fill="none" xmlns="http://www.w3.org/2000/svg">
<path d="M17.1132 10.948C17.1132 9.54795 18.2522 8.40893 19.6523 8.40893H20.531L20.2659 7.67209C20.1168 7.25771 19.7263 7 19.3101 7C19.1948 7 19.0775 7.0198 18.9628 7.06155L10.0836 10.2933C9.55572 10.4855 9.28404 11.0696 9.47731 11.5971L9.94648 12.8777H17.1132V10.948Z" fill="#FACE8F"/>
<path d="M19.6523 9.93262C19.0914 9.93262 18.6367 10.3873 18.6367 10.9482V12.8779H27.5234V10.9482C27.5234 10.3873 27.0687 9.93262 26.5078 9.93262H19.6523Z" fill="#FACE8F"/>
<path d="M30.2148 27.5283H26.6602C24.5601 27.5283 22.8516 25.8198 22.8516 23.7197C22.8516 21.6197 24.5601 19.9111 26.6602 19.9111H30.2148V16.4326C30.2148 15.3108 29.3054 14.4014 28.1836 14.4014H8.53125C7.40944 14.4014 6.5 15.3108 6.5 16.4326V30.969C6.5 32.0908 7.40944 33.0003 8.53125 33.0003H28.1836C29.3054 33.0003 30.2148 32.0908 30.2148 30.969V27.5283Z" fill="#F39B2D"/>
<path d="M31.7383 21.4346H26.6602C25.4001 21.4346 24.375 22.4597 24.375 23.7197C24.375 24.9798 25.4001 26.0049 26.6602 26.0049H31.7383C32.1583 26.0049 32.5 25.6632 32.5 25.2432V22.1963C32.5 21.7763 32.1583 21.4346 31.7383 21.4346ZM26.6602 24.4814C26.2395 24.4814 25.8984 24.1404 25.8984 23.7197C25.8984 23.2991 26.2395 22.958 26.6602 22.958C27.0808 22.958 27.4219 23.2991 27.4219 23.7197C27.4219 24.1404 27.0808 24.4814 26.6602 24.4814Z" fill="#F39B2D"/>
</svg>
